<svg id="ebTxXiGpBqc1" xmlns="http://www.w3.org/2000/svg" xmlns:xlink="http://www.w3.org/1999/xlink" viewBox="0 0 2560 1440" shape-rendering="geometricPrecision" text-rendering="geometricPrecision"><rect width="2560" height="1440" rx="0" ry="0" stroke-width="0"/><polygon points="0,-18.387417 5.403926,-7.437867 17.487473,-5.682024 8.743737,2.841012 10.807853,14.875733 0,9.193709 -10.807853,14.875733 -8.743737,2.841012 -17.487473,-5.682024 -5.403926,-7.437867 0,-18.387417" transform="matrix(-.5547 0.83205-.83205-.5547 82.408217 86.695786)" fill="#d2dbed" stroke-width="0"/><polygon points="0,-23.121376 6.795202,-9.352793 21.989735,-7.144898 10.994868,3.572449 13.590404,18.705586 0,11.560688 -13.590404,18.705586 -10.994868,3.572449 -21.989735,-7.144898 -6.795202,-9.352793 0,-23.121376" transform="translate(228.60111 175.091489)" fill="#d2dbed" stroke-width="0"/><polygon points="0,-25.461744 7.483019,-10.299492 24.215557,-7.868112 12.107779,3.934056 14.966037,20.598983 0,12.730872 -14.966037,20.598983 -12.107779,3.934056 -24.215557,-7.868112 -7.483019,-10.299492 0,-25.461744" transform="translate(118.106481 797.261244)" fill="#d2dbed" stroke-width="0"/><polygon points="0,-22.806784 6.702746,-9.225538 21.690541,-7.047684 10.84527,3.523842 13.405491,18.451076 0,11.403392 -13.405491,18.451076 -10.84527,3.523842 -21.690541,-7.047684 -6.702746,-9.225538 0,-22.806784" transform="translate(335.695904 462.377523)" fill="#d2dbed" stroke-width="0"/><polygon points="0,-24.556316 7.21692,-9.933239 23.354445,-7.588319 11.677222,3.79416 14.433841,19.866477 0,12.278158 -14.433841,19.866477 -11.677222,3.79416 -23.354445,-7.588319 -7.21692,-9.933239 0,-24.556316" transform="translate(614.482352 172.883594)" fill="#d2dbed" stroke-width="0"/><polygon points="0,-22.376052 6.576157,-9.051303 21.28089,-6.91458 10.640445,3.45729 13.152314,18.102607 0,11.188026 -13.152314,18.102607 -10.640445,3.45729 -21.28089,-6.91458 -6.576157,-9.051303 0,-22.376052" transform="translate(833.771692 73.119295)" fill="#d2dbed" stroke-width="0"/><polygon points="0,-26.878053 7.899262,-10.872401 25.562548,-8.305775 12.781274,4.152888 15.798523,21.744802 0,13.439027 -15.798523,21.744802 -12.781274,4.152888 -25.562548,-8.305775 -7.899262,-10.872401 0,-26.878053" transform="translate(1867.32145 656.168103)" fill="#d2dbed" stroke-width="0"/><polygon points="0,-15.393406 4.524009,-6.226764 14.639999,-4.756824 7.32,2.378412 9.048017,12.453527 0,7.696703 -9.048017,12.453527 -7.32,2.378412 -14.639999,-4.756824 -4.524009,-6.226764 0,-15.393406" transform="translate(1950.617401 413.07992)" fill="#d2dbed" stroke-width="0"/><polygon points="0,-18.699091 5.495525,-7.563941 17.783892,-5.778337 8.891946,2.889168 10.99105,15.127882 0,9.349546 -10.99105,15.127882 -8.891946,2.889168 -17.783892,-5.778337 -5.495525,-7.563941 0,-18.699091" transform="translate(1950.617401 207.389919)" fill="#d2dbed" stroke-width="0"/><polygon points="0,-20.399008 5.995118,-8.251572 19.400609,-6.30364 9.700305,3.15182 11.990236,16.503144 0,10.199504 -11.990236,16.503144 -9.700305,3.15182 -19.400609,-6.30364 -5.995118,-8.251572 0,-20.399008" transform="translate(2166.506906 188.690828)" fill="#d2dbed" stroke-width="0"/><polygon points="0,-18.418014 5.412918,-7.450243 17.516572,-5.691479 8.758286,2.84574 10.825837,14.900486 0,9.209007 -10.825837,14.900486 -8.758286,2.84574 -17.516572,-5.691479 -5.412918,-7.450243 0,-18.418014" transform="translate(2061.11203 63.893757)" fill="#d2dbed" stroke-width="0"/><polygon points="0,-12.258279 3.602618,-4.958578 11.658316,-3.788016 5.829158,1.894008 7.205235,9.917156 0,6.129139 -7.205235,9.917156 -5.829158,1.894008 -11.658316,-3.788016 -3.602618,-4.958578 0,-12.258279" transform="translate(381.593673 1244.339511)" fill="#d2dbed" stroke-width="0"/><polygon points="0,-18.07037 5.310748,-7.309618 17.185943,-5.584051 8.592971,2.792026 10.621497,14.619236 0,9.035185 -10.621497,14.619236 -8.592971,2.792026 -17.185943,-5.584051 -5.310748,-7.309618 0,-18.07037" transform="translate(560.084996 936.654468)" fill="#d2dbed" stroke-width="0"/><polygon points="0,-20.399008 5.995118,-8.251572 19.400609,-6.30364 9.700305,3.15182 11.990236,16.503144 0,10.199504 -11.990236,16.503144 -9.700305,3.15182 -19.400609,-6.30364 -5.995118,-8.251572 0,-20.399008" transform="translate(718.177311 629.29005)" fill="#d2dbed" stroke-width="0"/><polygon points="0,-30.938963 9.092733,-12.515074 29.424703,-9.560665 14.712351,4.780333 18.185466,25.030147 0,15.469482 -18.185466,25.030147 -14.712351,4.780333 -29.424703,-9.560665 -9.092733,-12.515074 0,-30.938963" transform="translate(1304.648802 1145.744304)" fill="#d2dbed" stroke-width="0"/><polygon points="0,-18.046015 5.303591,-7.299767 17.162781,-5.576525 8.58139,2.788263 10.607182,14.599533 0,9.023008 -10.607182,14.599533 -8.58139,2.788263 -17.162781,-5.576525 -5.303591,-7.299767 0,-18.046015" transform="translate(1486.53996 771.7995)" fill="#d2dbed" stroke-width="0"/><polygon points="0,-14.623243 4.297663,-5.915226 13.90753,-4.51883 6.953765,2.259415 8.595326,11.830452 0,7.311621 -8.595326,11.830452 -6.953765,2.259415 -13.90753,-4.51883 -4.297663,-5.915226 0,-14.623243" transform="translate(1569.835911 503.17554)" fill="#d2dbed" stroke-width="0"/><polygon points="0,-8.499587 2.497966,-3.438155 8.083588,-2.626517 4.041794,1.313258 4.995932,6.87631 0,4.249794 -4.995932,6.87631 -4.041794,1.313258 -8.083588,-2.626517 -2.497966,-3.438155 0,-8.499587" transform="translate(1583.743441 237.988431)" fill="#d2dbed" stroke-width="0"/><polygon points="0,-25.555362 7.510532,-10.337361 24.304594,-7.897041 12.152297,3.948521 15.021065,20.674722 0,12.777681 -15.021065,20.674722 -12.152297,3.948521 -24.304594,-7.897041 -7.510532,-10.337361 0,-25.555362" transform="translate(2015.214261 1125.345296)" fill="#d2dbed" stroke-width="0"/><polygon points="0,-18.07037 5.310748,-7.309618 17.185943,-5.584051 8.592971,2.792026 10.621497,14.619236 0,9.035185 -10.621497,14.619236 -8.592971,2.792026 -17.185943,-5.584051 -5.310748,-7.309618 0,-18.07037" transform="translate(1144.85657 321.284382)" fill="#d2dbed" stroke-width="0"/><polygon points="0,-14.73531 4.330599,-5.960558 14.014112,-4.553461 7.007056,2.276731 8.661198,11.921116 0,7.367655 -8.661198,11.921116 -7.007056,2.276731 -14.014112,-4.553461 -4.330599,-5.960558 0,-14.73531" transform="translate(1398.144257 91.221902)" fill="#d2dbed" stroke-width="0"/><polygon points="0,-19.952152 5.86379,-8.070815 18.975625,-6.165554 9.487812,3.082777 11.727581,16.14163 0,9.976076 -11.727581,16.14163 -9.487812,3.082777 -18.975625,-6.165554 -5.86379,-8.070815 0,-19.952152" transform="translate(2358.597569 771.7995)" fill="#d2dbed" stroke-width="0"/><polygon points="0,-27.805112 8.171717,-11.247404 26.444233,-8.592252 13.222116,4.296126 16.343435,22.494808 0,13.902556 -16.343435,22.494808 -13.222116,4.296126 -26.444233,-8.592252 -8.171717,-11.247404 0,-27.805112" transform="translate(894.968717 1243.16895)" fill="#d2dbed" stroke-width="0"/><polygon points="0,-20.122475 5.440739,-7.488536 19.137611,-6.218187 8.803301,2.860365 11.827694,16.279424 0,9.256338 -11.827694,16.279424 -8.803301,2.860365 -19.137611,-6.218187 -5.440739,-7.488536 0,-20.122475" transform="translate(2339.621944 1254.256667)" fill="#d2dbed" stroke-width="0"/></svg>
